<svg xmlns="http://www.w3.org/2000/svg" fill="url(#paint)" height="20" width="20"><path d="M10.979 9.958h5.75V6.104h-5.75Zm2.875-.833-2.208-1.479V6.75l2.208 1.479 2.229-1.479v.896ZM2.042 17.167q-.854 0-1.448-.594T0 15.125V4.875q0-.854.594-1.448t1.448-.594h15.916q.854 0 1.448.594T20 4.875v10.25q0 .854-.594 1.448t-1.448.594Zm5.291-5.271q1.084 0 1.834-.74.75-.739.75-1.823 0-1.104-.75-1.854t-1.834-.75q-1.083 0-1.843.75-.761.75-.761 1.854 0 1.084.761 1.823.76.74 1.843.74Zm-5.458 3.437h10.854q-1.062-1.125-2.417-1.812-1.354-.688-2.958-.688-1.562 0-2.979.677-1.417.678-2.5 1.823Z"/><defs><linearGradient id="paint" gradientUnits="userSpaceOnUse"><stop stop-color="#997600"/><stop offset="1" stop-color="#fffae8"/><stop offset="2" stop-color="#fef3cb"/><stop offset="3" stop-color="#feecad"/><stop offset="4" stop-color="#333400"/><stop offset="5" stop-color="#ffc80e"/></linearGradient></defs></svg>