<svg xmlns="http://www.w3.org/2000/svg" fill="url(#paint)" height="20" width="20"><path d="M3.688 14.875q-.438 0-.761-.313-.323-.312-.323-.77 0-.438.323-.761t.761-.323q.437 0 .75.313.312.312.312.771 0 .437-.302.76t-.76.323Zm0-3.792q-.438 0-.761-.312-.323-.313-.323-.771 0-.438.323-.76.323-.323.761-.323.437 0 .75.312.312.313.312.771 0 .438-.302.76-.302.323-.76.323Zm0-3.791q-.438 0-.761-.313-.323-.312-.323-.771 0-.437.323-.76t.761-.323q.437 0 .75.313.312.312.312.77 0 .438-.302.761t-.76.323Zm2.458 7.52v-2.041h11.25v2.041Zm0-3.791V8.979h11.25v2.042Zm0-3.792V5.188h11.25v2.041Z"/><defs><linearGradient id="paint" gradientUnits="userSpaceOnUse"><stop stop-color="#997600"/><stop offset="1" stop-color="#fffae8"/><stop offset="2" stop-color="#fef3cb"/><stop offset="3" stop-color="#feecad"/><stop offset="4" stop-color="#333400"/><stop offset="5" stop-color="#ffc80e"/></linearGradient></defs></svg>