<?xml version="1.0" encoding="UTF-8" standalone="no"?>
<!DOCTYPE svg PUBLIC "-//W3C//DTD SVG 20010904//EN"
              "http://www.w3.org/TR/2001/REC-SVG-20010904/DTD/svg10.dtd">

<svg xmlns="http://www.w3.org/2000/svg"
     width="2.26667in" height="2.26667in"
     viewBox="0 0 204 204">
  <path id="Selección"
        fill="url(#paint0_linear_16_349)" stroke="black" stroke-width="1"
        d="M 103.50,16.00
           C 103.50,16.00 103.50,1.25 103.50,1.25
             120.33,-5.33 165.46,16.17 182.54,37.00
             218.14,80.43 210.00,152.51 162.75,184.16
             138.71,200.27 134.51,203.08 106.50,202.75
             101.17,202.69 97.25,190.25 105.50,184.00
             165.00,184.75 189.25,116.00 184.00,106.25
             185.50,89.50 184.25,79.75 172.50,57.50
             162.00,40.00 160.00,39.25 148.50,31.25
             125.50,17.00 123.75,18.00 103.50,16.00 Z" />

             <path id="Selección #2"
        fill="white" stroke="black" stroke-width="1"
        d="M 65.00,82.00
           C 65.00,82.00 83.00,82.00 83.00,82.00
             83.00,82.00 83.00,87.00 83.00,87.00
             83.00,87.00 72.00,87.00 72.00,87.00
             72.00,87.00 72.00,90.00 72.00,90.00
             75.20,90.01 79.09,89.71 81.75,91.74
             86.03,94.96 85.89,102.87 81.75,106.11
             77.69,109.25 68.75,107.85 64.00,107.00
             64.00,107.00 64.00,101.19 64.00,101.19
             66.51,101.20 71.74,102.27 73.84,101.19
             76.46,100.29 76.46,97.71 73.84,96.81
             71.71,95.72 67.35,96.69 65.00,96.81
             65.00,96.81 65.00,82.00 65.00,82.00 Z
           M 94.04,83.02
           C 97.83,81.73 103.24,81.20 106.61,83.89
             112.48,88.57 112.38,102.68 105.79,106.69
             103.68,107.97 100.42,108.14 98.00,107.94
             86.91,107.05 84.32,90.23 94.04,83.02 Z
           M 116.15,83.02
           C 119.06,81.99 122.91,81.27 125.49,83.60
             128.78,86.57 128.80,94.89 121.98,95.85
             113.41,97.06 110.01,88.46 116.15,83.02 Z
           M 119.00,108.00
           C 119.00,108.00 129.58,91.00 129.58,91.00
             129.58,91.00 135.52,82.99 135.52,82.99
             135.52,82.99 141.00,82.00 141.00,82.00
             141.00,82.00 130.58,99.00 130.58,99.00
             130.58,99.00 124.48,107.01 124.48,107.01
             124.48,107.01 119.00,108.00 119.00,108.00 Z
           M 122.00,86.00
           C 117.34,87.64 117.34,90.36 122.00,92.00
             122.00,92.00 122.00,86.00 122.00,86.00 Z
           M 98.39,88.62
           C 94.11,92.27 95.67,103.49 100.61,101.38
             103.39,100.19 105.35,88.01 98.39,88.62 Z
           M 136.13,94.74
           C 138.97,94.02 142.92,93.40 145.26,95.74
             148.03,98.50 147.50,105.53 143.77,107.26
             134.71,111.48 127.53,100.40 136.13,94.74 Z
           M 138.00,104.00
           C 142.66,102.36 142.66,99.64 138.00,98.00
             138.00,98.00 138.00,104.00 138.00,104.00 Z" />
              <defs>
<linearGradient id="paint0_linear_16_349" x1="-12.4348" y1="91.2145" x2="228.124" y2="92.098" gradientUnits="userSpaceOnUse">
<stop stop-color="#AA367C"/>
<stop offset="1" stop-color="#4A2FBD"/>
</linearGradient>
</defs>
</svg>
