<?xml version="1.0" encoding="UTF-8" standalone="no"?>
<!DOCTYPE svg PUBLIC "-//W3C//DTD SVG 20010904//EN"
              "http://www.w3.org/TR/2001/REC-SVG-20010904/DTD/svg10.dtd">

<svg xmlns="http://www.w3.org/2000/svg"
     width="2.26667in" height="2.26667in"
     viewBox="0 0 204 204">
  <path id="Selección"
        fill="url(#paint0_linear_16_349)" stroke="black" stroke-width="1"
        d="M 103.50,16.00
           C 103.50,16.00 103.50,1.25 103.50,1.25
             120.33,-5.33 165.46,16.17 182.54,37.00
             202.00,59.33 199.00,70.67 195.67,75.33
             192.67,74.33 188.00,80.67 172.50,57.50
             164.67,47.33 160.00,39.25 148.50,31.25
             131.67,21.33 123.75,18.00 103.50,16.00 Z
           M 264.67,67.33M 258.67,24.67
           C 258.67,24.67 253.33,87.00 253.33,87.00" />
           <path id="Selección #1"
        fill="white" stroke="black" stroke-width="1"
        d="M 66.00,89.00
           C 66.06,87.17 65.93,85.02 67.02,83.43
             68.94,80.64 73.98,80.91 77.00,81.02
             85.85,81.34 88.56,88.29 83.57,94.99
             81.64,97.57 78.50,99.95 76.00,102.00
             76.00,102.00 86.00,102.00 86.00,102.00
             86.00,102.00 86.00,107.00 86.00,107.00
             86.00,107.00 66.00,107.00 66.00,107.00
             66.33,96.58 72.78,98.79 76.26,92.00
             78.48,87.66 74.07,87.23 71.00,87.88
             71.00,87.88 66.00,89.00 66.00,89.00 Z
           M 96.04,82.02
           C 99.83,80.73 105.24,80.20 108.61,82.89
             114.48,87.57 114.38,101.68 107.79,105.69
             105.68,106.97 102.42,107.14 100.00,106.94
             88.91,106.05 86.32,89.23 96.04,82.02 Z
           M 118.15,82.02
           C 121.06,80.99 124.91,80.27 127.49,82.60
             130.78,85.57 130.80,93.89 123.98,94.85
             115.41,96.06 112.01,87.46 118.15,82.02 Z
           M 121.00,107.00
           C 121.00,107.00 131.58,90.00 131.58,90.00
             131.58,90.00 137.52,81.99 137.52,81.99
             137.52,81.99 143.00,81.00 143.00,81.00
             143.00,81.00 132.58,98.00 132.58,98.00
             132.58,98.00 126.48,106.01 126.48,106.01
             126.48,106.01 121.00,107.00 121.00,107.00 Z
           M 124.00,85.00
           C 119.34,86.64 119.34,89.36 124.00,91.00
             124.00,91.00 124.00,85.00 124.00,85.00 Z
           M 100.39,87.62
           C 96.11,91.27 97.67,102.49 102.61,100.38
             105.39,99.19 107.35,87.01 100.39,87.62 Z
           M 138.13,93.74
           C 140.97,93.02 144.92,92.40 147.26,94.74
             150.03,97.50 149.50,104.53 145.77,106.26
             136.71,110.48 129.53,99.40 138.13,93.74 Z
           M 140.00,103.00
           C 144.66,101.36 144.66,98.64 140.00,97.00
             140.00,97.00 140.00,103.00 140.00,103.00 Z" />
              <defs>
<linearGradient id="paint0_linear_16_349" x1="-12.4348" y1="91.2145" x2="228.124" y2="92.098" gradientUnits="userSpaceOnUse">
<stop stop-color="#AA367C"/>
<stop offset="1" stop-color="#4A2FBD"/>
</linearGradient>
</defs>
</svg>
