<svg width="204" height="204" viewBox="0 0 204 204" fill="none" xmlns="http://www.w3.org/2000/svg"><path id="Selección" fill="url(#paint)" stroke="black" stroke-width="1" d="M 91.00,0.22 C 91.00,0.22 106.00,0.22 106.00,0.22   117.39,0.14 133.70,3.95 144.00,8.78   162.24,17.33 176.13,28.07 187.48,45.00   214.44,85.21 207.66,142.43 173.00,175.96   165.29,183.42 156.56,189.00 147.00,193.75   130.84,201.78 114.86,204.21 97.00,204.00   88.99,203.90 76.65,201.21 69.00,198.67   12.72,179.92 -14.57,117.37 7.45,63.00   18.38,36.02 40.36,14.81 68.00,5.52   75.46,3.01 83.25,1.70 91.00,0.22 Z M 91.00,16.29 C 60.51,21.33 35.36,37.60 23.45,67.00   5.58,111.12 26.54,165.19 73.00,180.67   80.02,183.01 88.59,184.91 96.00,185.00   111.15,185.17 124.18,183.46 138.00,176.74   148.95,171.42 154.56,166.65 162.99,158.00   196.82,123.27 190.38,64.64 154.00,34.32   136.97,20.13 112.83,14.22 91.00,16.29 Z" /><path id="Selección #3" fill="white" stroke="black" stroke-width="1" d="M 57.00,80.00C 57.00,80.00 70.00,80.00 70.00,80.00  70.00,80.00 70.00,101.00 70.00,101.00  70.00,101.00 76.00,101.00 76.00,101.00  76.00,101.00 76.00,106.00 76.00,106.00  76.00,106.00 57.00,106.00 57.00,106.00  57.00,106.00 57.00,101.00 57.00,101.00  57.00,101.00 63.00,101.00 63.00,101.00  63.00,101.00 63.00,86.00 63.00,86.00  63.00,86.00 57.00,86.00 57.00,86.00  57.00,86.00 57.00,80.00 57.00,80.00 ZM 85.04,81.02C 88.83,79.73 94.24,79.20 97.61,81.89  103.48,86.57 103.38,100.68 96.79,104.69  94.68,105.97 91.42,106.14 89.00,105.94  77.91,105.05 75.32,88.23 85.04,81.02 ZM 110.04,81.02C 113.83,79.73 119.24,79.20 122.61,81.89  128.48,86.57 128.38,100.68 121.79,104.69  119.68,105.97 116.42,106.14 114.00,105.94  102.91,105.05 100.32,88.23 110.04,81.02 ZM 132.15,81.02C 135.06,79.99 138.91,79.27 141.49,81.60  144.78,84.57 144.80,92.89 137.98,93.85  129.41,95.06 126.01,86.46 132.15,81.02 ZM 135.00,106.00C 135.00,106.00 145.58,89.00 145.58,89.00  145.58,89.00 151.52,80.99 151.52,80.99  151.52,80.99 157.00,80.00 157.00,80.00  157.00,80.00 146.58,97.00 146.58,97.00  146.58,97.00 140.48,105.01 140.48,105.01  140.48,105.01 135.00,106.00 135.00,106.00 ZM 138.00,84.00C 133.40,85.61 133.40,88.39 138.00,90.00  138.00,90.00 138.00,84.00 138.00,84.00 ZM 89.39,86.62C 85.11,90.27 86.67,101.49 91.61,99.38  94.39,98.19 96.35,86.01 89.39,86.62 ZM 114.39,86.62 C 110.11,90.27 111.67,101.49 116.61,99.38 119.39,98.19 121.35,86.01 114.39,86.62 Z M 152.13,92.74 C 154.97,92.02 158.92,91.40 161.26,93.74 164.03,96.50 163.50,103.53 159.77,105.26 150.71,109.48 143.53,98.40 152.13,92.74 Z M 154.00,102.00 C 156.15,101.25 159.22,99.47 156.39,97.00 155.49,96.21 154.57,96.20 154.00,96.00 154.00,96.00 154.00,102.00 154.00,102.00 Z" /><defs><linearGradient id="paint" gradientUnits="userSpaceOnUse"><stop stop-color="#997600"/><stop offset="1" stop-color="#fffae8"/><stop offset="2" stop-color="#fef3cb"/><stop offset="3" stop-color="#feecad"/><stop offset="4" stop-color="#333400"/><stop offset="5" stop-color="#ffc80e"/></linearGradient></defs></svg>
